<svg xmlns="http://www.w3.org/2000/svg" viewBox="0 0 830 848">
<path d="M 667 340 L 668 341 L 668 342 L 669 343 L 669 344 L 669 345 L 670 346 L 670 347 L 670 348 L 670 349 L 671 350 L 671 351 L 671 352 L 672 353 L 672 354 L 672 355 L 672 356 L 673 357 L 673 358 L 674 359 L 674 360 L 674 361 L 674 362 L 674 363 L 674 364 L 675 365 L 675 366 L 676 367 L 676 368 L 676 369 L 676 370 L 676 371 L 676 372 L 677 373 L 677 374 L 677 375 L 677 376 L 677 377 L 677 378 L 677 379 L 677 380 L 678 381 L 678 382 L 678 383 L 678 384 L 678 385 L 678 386 L 678 387 L 678 388 L 678 389 L 678 390 L 678 391 L 677 392 L 677 393 L 676 394 L 675 395 L 675 396 L 674 397 L 674 398 L 674 399 L 674 400 L 675 400 L 676 399 L 676 398 L 677 397 L 677 396 L 678 395 L 679 395 L 680 395 L 681 395 L 682 395 L 682 394 L 682 393 L 682 392 L 682 391 L 682 390 L 682 389 L 683 388 L 684 387 L 684 386 L 683 385 L 683 384 L 683 383 L 683 382 L 683 381 L 683 380 L 682 379 L 681 378 L 681 377 L 680 376 L 679 375 L 679 374 L 679 373 L 679 372 L 679 371 L 679 370 L 679 369 L 678 368 L 677 368 L 676 367 L 676 366 L 676 365 L 676 364 L 676 363 L 676 362 L 676 361 L 675 360 L 675 359 L 675 358 L 675 357 L 675 356 L 674 355 L 674 354 L 673 353 L 673 352 L 672 351 L 672 350 L 671 349 L 671 348 L 671 347 L 670 346 L 670 345 L 669 344 L 669 343 L 668 342 L 668 341 Z" fill="black" />
<path d="M 374 152 L 373 153 L 372 153 L 371 153 L 370 153 L 369 154 L 368 154 L 367 155 L 366 155 L 365 156 L 364 156 L 363 157 L 362 158 L 361 159 L 360 159 L 359 160 L 358 160 L 357 161 L 356 161 L 355 162 L 354 163 L 353 163 L 352 164 L 351 165 L 350 166 L 349 166 L 348 167 L 347 168 L 346 169 L 345 170 L 344 171 L 343 172 L 342 172 L 342 173 L 342 174 L 342 175 L 342 176 L 342 177 L 342 178 L 341 179 L 341 180 L 341 181 L 341 182 L 341 183 L 341 184 L 341 185 L 341 186 L 341 187 L 341 188 L 341 189 L 341 190 L 341 191 L 341 192 L 341 193 L 341 194 L 341 195 L 341 196 L 341 197 L 341 198 L 341 199 L 341 200 L 340 201 L 340 202 L 340 203 L 340 204 L 339 205 L 339 206 L 339 207 L 339 208 L 339 209 L 339 210 L 338 211 L 338 212 L 338 213 L 338 214 L 337 215 L 337 216 L 337 217 L 337 218 L 336 219 L 336 220 L 335 221 L 335 222 L 335 223 L 335 224 L 335 225 L 335 226 L 334 227 L 333 228 L 333 229 L 333 230 L 332 231 L 332 232 L 331 233 L 331 234 L 331 235 L 330 236 L 330 237 L 330 238 L 331 239 L 331 240 L 331 241 L 331 242 L 331 243 L 331 244 L 331 245 L 332 246 L 332 247 L 333 248 L 333 249 L 334 250 L 334 251 L 335 252 L 335 253 L 336 254 L 336 255 L 336 256 L 336 257 L 336 258 L 337 259 L 337 260 L 337 261 L 338 262 L 338 263 L 338 264 L 338 265 L 338 266 L 338 267 L 338 268 L 338 269 L 338 270 L 338 271 L 338 272 L 338 273 L 338 274 L 338 275 L 338 276 L 338 277 L 338 278 L 339 279 L 340 279 L 341 279 L 342 280 L 342 281 L 342 282 L 342 283 L 343 284 L 344 284 L 345 285 L 346 286 L 347 287 L 348 288 L 349 288 L 350 289 L 351 290 L 352 291 L 353 292 L 354 292 L 355 293 L 356 294 L 357 295 L 358 296 L 359 297 L 360 298 L 361 299 L 362 299 L 363 300 L 364 301 L 365 301 L 366 302 L 366 303 L 367 304 L 367 305 L 368 306 L 369 307 L 370 308 L 371 309 L 372 310 L 372 311 L 373 312 L 374 313 L 374 314 L 375 315 L 375 316 L 376 317 L 376 318 L 376 319 L 376 320 L 376 321 L 375 322 L 375 323 L 374 324 L 374 325 L 374 326 L 373 327 L 372 327 L 371 327 L 370 327 L 369 327 L 368 327 L 367 327 L 366 326 L 365 326 L 364 325 L 363 325 L 362 324 L 361 324 L 360 324 L 359 323 L 358 323 L 357 322 L 356 322 L 355 322 L 354 322 L 353 321 L 352 321 L 351 321 L 350 320 L 349 320 L 348 320 L 347 319 L 346 319 L 345 319 L 344 319 L 343 318 L 342 318 L 341 318 L 340 317 L 339 317 L 338 317 L 337 316 L 336 316 L 335 316 L 334 316 L 333 315 L 332 315 L 331 315 L 330 315 L 329 314 L 328 314 L 327 314 L 326 314 L 325 313 L 324 313 L 323 313 L 322 313 L 321 313 L 320 313 L 319 312 L 318 312 L 317 312 L 316 311 L 315 310 L 315 309 L 315 308 L 314 307 L 314 306 L 313 305 L 313 304 L 312 303 L 312 302 L 312 301 L 311 300 L 311 299 L 311 298 L 310 297 L 310 296 L 309 295 L 309 294 L 309 293 L 308 292 L 308 291 L 307 290 L 307 289 L 306 288 L 306 287 L 306 286 L 305 285 L 305 284 L 305 283 L 304 282 L 304 281 L 303 280 L 303 279 L 302 278 L 302 277 L 301 276 L 301 275 L 300 274 L 300 273 L 299 272 L 299 271 L 298 270 L 298 269 L 297 268 L 297 267 L 296 266 L 295 265 L 295 264 L 294 263 L 294 262 L 293 261 L 292 260 L 292 259 L 291 258 L 291 257 L 291 256 L 291 255 L 291 254 L 291 253 L 291 252 L 291 251 L 291 250 L 291 249 L 292 248 L 292 247 L 292 246 L 292 245 L 292 244 L 292 243 L 292 242 L 293 241 L 293 240 L 293 239 L 293 238 L 293 237 L 293 236 L 293 235 L 293 234 L 294 233 L 294 232 L 294 231 L 294 230 L 294 229 L 294 228 L 294 227 L 294 226 L 294 225 L 294 224 L 294 223 L 295 222 L 295 221 L 295 220 L 295 219 L 295 218 L 295 217 L 295 216 L 295 215 L 295 214 L 295 213 L 295 212 L 295 211 L 295 210 L 295 209 L 295 208 L 295 207 L 295 206 L 295 205 L 295 204 L 295 203 L 295 202 L 295 201 L 295 200 L 295 199 L 295 198 L 295 197 L 295 196 L 295 195 L 295 194 L 296 193 L 296 192 L 296 191 L 296 190 L 296 189 L 297 188 L 297 187 L 298 186 L 298 185 L 298 184 L 299 183 L 299 182 L 299 181 L 300 180 L 301 179 L 301 178 L 302 177 L 302 176 L 302 175 L 303 174 L 303 173 L 304 172 L 304 171 L 305 170 L 306 169 L 307 168 L 308 167 L 308 166 L 309 165 L 310 164 L 311 163 L 312 162 L 312 161 L 313 160 L 312 160 L 311 161 L 310 162 L 309 162 L 308 163 L 307 164 L 306 165 L 305 166 L 305 167 L 304 168 L 303 169 L 302 170 L 301 171 L 300 172 L 299 173 L 298 174 L 298 175 L 297 176 L 296 177 L 296 178 L 296 179 L 295 180 L 295 181 L 294 182 L 293 183 L 292 184 L 292 185 L 291 186 L 291 187 L 290 188 L 290 189 L 290 190 L 289 191 L 289 192 L 289 193 L 289 194 L 289 195 L 289 196 L 289 197 L 289 198 L 289 199 L 288 200 L 287 201 L 287 202 L 288 203 L 288 204 L 288 205 L 288 206 L 288 207 L 288 208 L 289 209 L 289 210 L 289 211 L 289 212 L 289 213 L 289 214 L 290 215 L 290 216 L 290 217 L 290 218 L 290 219 L 290 220 L 290 221 L 290 222 L 290 223 L 289 224 L 289 225 L 289 226 L 289 227 L 289 228 L 289 229 L 289 230 L 289 231 L 289 232 L 289 233 L 289 234 L 288 235 L 288 236 L 288 237 L 288 238 L 288 239 L 287 240 L 287 241 L 287 242 L 287 243 L 286 244 L 286 245 L 286 246 L 286 247 L 285 248 L 285 249 L 285 250 L 284 251 L 284 252 L 284 253 L 283 254 L 282 255 L 283 256 L 283 257 L 284 257 L 285 258 L 285 259 L 285 260 L 285 261 L 285 262 L 285 263 L 285 264 L 285 265 L 285 266 L 286 267 L 287 268 L 288 269 L 289 270 L 290 271 L 290 272 L 291 273 L 292 274 L 293 275 L 293 276 L 294 277 L 295 278 L 295 279 L 296 280 L 297 281 L 297 282 L 298 283 L 298 284 L 299 285 L 299 286 L 300 287 L 300 288 L 301 289 L 301 290 L 301 291 L 302 292 L 302 293 L 303 294 L 303 295 L 304 296 L 304 297 L 304 298 L 305 299 L 305 300 L 305 301 L 305 302 L 306 303 L 306 304 L 306 305 L 307 306 L 307 307 L 307 308 L 307 309 L 307 310 L 307 311 L 307 312 L 307 313 L 308 314 L 308 315 L 309 315 L 310 315 L 311 315 L 312 316 L 312 317 L 312 318 L 313 319 L 313 320 L 314 321 L 315 321 L 316 321 L 317 321 L 318 321 L 319 321 L 320 321 L 321 321 L 322 321 L 323 321 L 324 321 L 325 321 L 326 321 L 327 321 L 328 321 L 329 321 L 330 321 L 331 321 L 332 321 L 333 322 L 334 322 L 335 322 L 336 322 L 337 322 L 338 322 L 339 323 L 340 323 L 341 323 L 342 323 L 343 324 L 344 324 L 345 324 L 346 324 L 347 325 L 348 325 L 349 325 L 350 326 L 351 326 L 352 327 L 353 327 L 354 327 L 355 328 L 356 328 L 357 328 L 358 329 L 359 329 L 360 330 L 361 330 L 362 331 L 363 331 L 364 331 L 365 332 L 366 332 L 367 333 L 368 333 L 369 334 L 370 334 L 371 335 L 372 336 L 373 337 L 374 338 L 374 339 L 375 340 L 375 341 L 375 342 L 375 343 L 375 344 L 375 345 L 374 346 L 373 346 L 372 346 L 371 346 L 370 346 L 369 346 L 368 346 L 367 345 L 366 345 L 365 345 L 364 345 L 363 345 L 362 346 L 361 346 L 360 346 L 359 346 L 358 346 L 357 346 L 356 346 L 355 346 L 354 346 L 353 346 L 352 346 L 351 346 L 350 346 L 349 346 L 348 346 L 347 346 L 346 346 L 345 346 L 344 347 L 343 347 L 342 347 L 341 347 L 340 347 L 339 347 L 338 347 L 337 348 L 336 348 L 335 348 L 334 348 L 333 348 L 332 348 L 331 348 L 330 348 L 329 348 L 328 348 L 327 349 L 326 349 L 325 349 L 324 349 L 323 349 L 322 350 L 321 350 L 320 350 L 319 350 L 318 350 L 317 350 L 316 350 L 315 351 L 314 351 L 313 351 L 312 351 L 311 351 L 310 351 L 309 352 L 308 352 L 307 352 L 306 352 L 305 353 L 304 353 L 303 353 L 302 353 L 301 353 L 300 353 L 299 354 L 298 354 L 297 354 L 296 354 L 295 354 L 294 354 L 293 354 L 292 354 L 291 353 L 290 352 L 289 352 L 288 351 L 287 351 L 286 350 L 285 350 L 284 349 L 283 349 L 282 348 L 281 348 L 280 347 L 279 347 L 278 346 L 277 346 L 276 345 L 275 345 L 274 345 L 273 344 L 272 344 L 271 344 L 270 343 L 269 343 L 268 342 L 267 342 L 266 341 L 265 341 L 264 340 L 263 340 L 262 340 L 261 339 L 260 339 L 259 339 L 258 338 L 257 338 L 256 338 L 255 338 L 254 338 L 253 338 L 252 337 L 251 336 L 250 335 L 249 335 L 248 334 L 247 334 L 246 333 L 245 333 L 244 333 L 243 333 L 242 332 L 241 332 L 240 331 L 239 331 L 238 331 L 237 331 L 236 331 L 235 330 L 234 330 L 233 329 L 232 328 L 231 327 L 231 326 L 230 325 L 230 324 L 229 323 L 229 322 L 228 321 L 228 320 L 227 319 L 227 318 L 227 317 L 226 316 L 226 315 L 226 314 L 226 313 L 225 312 L 225 311 L 224 310 L 224 309 L 224 308 L 224 307 L 224 306 L 223 305 L 223 304 L 222 303 L 222 302 L 221 301 L 221 300 L 221 299 L 220 298 L 220 297 L 219 296 L 219 295 L 218 294 L 218 293 L 218 292 L 217 291 L 217 290 L 216 289 L 216 288 L 216 287 L 215 286 L 215 285 L 214 284 L 214 283 L 213 282 L 213 281 L 212 280 L 212 279 L 211 278 L 211 277 L 210 276 L 210 275 L 210 274 L 209 273 L 209 272 L 208 271 L 207 270 L 207 269 L 207 268 L 206 267 L 206 266 L 206 265 L 206 264 L 206 263 L 206 262 L 206 261 L 206 260 L 206 259 L 206 258 L 206 257 L 206 256 L 206 255 L 206 254 L 206 253 L 206 252 L 206 251 L 206 250 L 206 249 L 206 248 L 206 247 L 207 246 L 207 245 L 207 244 L 207 243 L 207 242 L 207 241 L 207 240 L 207 239 L 207 238 L 208 237 L 208 236 L 208 235 L 208 234 L 208 233 L 209 232 L 209 231 L 209 230 L 209 229 L 210 228 L 210 227 L 210 226 L 210 225 L 211 224 L 211 223 L 212 222 L 213 221 L 212 221 L 211 222 L 211 223 L 210 224 L 209 225 L 209 226 L 208 227 L 208 228 L 208 229 L 208 230 L 207 231 L 207 232 L 207 233 L 206 234 L 206 235 L 206 236 L 205 237 L 205 238 L 205 239 L 205 240 L 205 241 L 204 242 L 204 243 L 203 244 L 203 245 L 203 246 L 203 247 L 203 248 L 202 249 L 202 250 L 202 251 L 202 252 L 201 253 L 201 254 L 201 255 L 201 256 L 201 257 L 200 258 L 200 259 L 200 260 L 200 261 L 200 262 L 199 263 L 199 264 L 199 265 L 199 266 L 199 267 L 200 267 L 201 268 L 201 269 L 201 270 L 201 271 L 201 272 L 201 273 L 201 274 L 202 275 L 202 276 L 203 277 L 204 278 L 205 279 L 205 280 L 206 281 L 207 282 L 208 283 L 208 284 L 209 285 L 209 286 L 210 287 L 210 288 L 210 289 L 211 290 L 211 291 L 212 292 L 213 293 L 213 294 L 213 295 L 214 296 L 214 297 L 215 298 L 215 299 L 216 300 L 216 301 L 216 302 L 217 303 L 217 304 L 218 305 L 218 306 L 218 307 L 218 308 L 219 309 L 219 310 L 219 311 L 220 312 L 220 313 L 220 314 L 221 315 L 221 316 L 221 317 L 221 318 L 222 319 L 222 320 L 222 321 L 222 322 L 223 323 L 223 324 L 223 325 L 223 326 L 223 327 L 224 328 L 224 329 L 224 330 L 224 331 L 224 332 L 224 333 L 224 334 L 225 334 L 226 334 L 227 334 L 228 335 L 229 336 L 229 337 L 229 338 L 230 339 L 231 339 L 232 339 L 233 339 L 234 339 L 235 339 L 236 339 L 237 339 L 238 339 L 239 339 L 240 339 L 241 340 L 242 340 L 243 340 L 244 341 L 245 341 L 246 341 L 247 341 L 248 341 L 249 342 L 250 342 L 251 342 L 252 343 L 253 343 L 254 344 L 255 344 L 256 344 L 257 344 L 258 344 L 259 345 L 260 345 L 261 346 L 262 347 L 263 347 L 264 348 L 265 348 L 266 349 L 267 349 L 268 350 L 269 351 L 270 351 L 271 351 L 272 352 L 273 353 L 274 354 L 275 354 L 276 355 L 277 356 L 278 356 L 279 357 L 280 358 L 281 359 L 282 360 L 283 360 L 284 361 L 285 362 L 286 363 L 287 364 L 288 365 L 289 366 L 290 367 L 291 367 L 292 366 L 293 366 L 294 366 L 295 366 L 296 366 L 297 366 L 298 366 L 299 366 L 300 366 L 301 365 L 302 364 L 303 364 L 304 363 L 305 363 L 306 362 L 307 362 L 308 361 L 309 361 L 310 360 L 311 360 L 312 359 L 313 359 L 314 359 L 315 359 L 316 358 L 317 358 L 318 358 L 319 357 L 320 357 L 321 356 L 322 356 L 323 356 L 324 356 L 325 356 L 326 356 L 327 355 L 328 355 L 329 355 L 330 355 L 331 355 L 332 355 L 333 354 L 334 354 L 335 354 L 336 354 L 337 353 L 338 353 L 339 353 L 340 353 L 341 353 L 342 352 L 343 352 L 344 352 L 345 352 L 346 352 L 347 352 L 348 352 L 349 352 L 350 352 L 351 351 L 352 351 L 353 351 L 354 351 L 355 351 L 356 351 L 357 351 L 358 351 L 359 351 L 360 351 L 361 351 L 362 351 L 363 351 L 364 351 L 365 351 L 366 351 L 367 351 L 368 351 L 369 351 L 370 351 L 371 351 L 372 351 L 373 351 L 374 351 L 375 351 L 376 351 L 377 351 L 378 351 L 379 352 L 380 352 L 381 352 L 382 353 L 383 354 L 384 355 L 385 356 L 385 357 L 386 358 L 386 359 L 386 360 L 386 361 L 386 362 L 385 363 L 384 363 L 383 363 L 382 363 L 381 363 L 380 363 L 379 364 L 378 364 L 377 365 L 376 365 L 375 366 L 374 366 L 373 367 L 372 368 L 371 368 L 370 369 L 369 370 L 368 371 L 367 372 L 366 373 L 365 374 L 364 375 L 363 376 L 362 377 L 361 378 L 360 379 L 359 380 L 358 381 L 357 382 L 356 383 L 355 383 L 354 384 L 353 384 L 352 384 L 351 385 L 350 385 L 349 385 L 348 386 L 347 386 L 346 386 L 345 386 L 344 387 L 343 387 L 342 387 L 341 388 L 340 388 L 339 388 L 338 389 L 337 389 L 336 389 L 335 390 L 334 390 L 333 390 L 332 391 L 331 391 L 330 392 L 329 392 L 328 392 L 327 393 L 326 394 L 325 394 L 324 394 L 323 394 L 322 395 L 321 395 L 320 396 L 319 396 L 318 396 L 317 397 L 316 397 L 315 398 L 314 398 L 313 398 L 312 399 L 311 399 L 310 400 L 309 400 L 308 401 L 307 402 L 306 402 L 305 403 L 304 403 L 303 403 L 302 404 L 301 404 L 300 405 L 299 405 L 298 406 L 297 407 L 296 407 L 295 408 L 294 408 L 293 409 L 292 409 L 291 410 L 290 410 L 289 411 L 288 412 L 287 412 L 286 413 L 285 413 L 284 413 L 283 414 L 282 415 L 281 416 L 280 416 L 279 417 L 278 418 L 277 418 L 276 419 L 275 420 L 274 420 L 273 421 L 272 422 L 271 422 L 270 423 L 269 423 L 268 424 L 267 424 L 266 425 L 265 426 L 264 426 L 263 427 L 262 428 L 261 428 L 260 428 L 259 429 L 258 429 L 257 429 L 256 429 L 255 429 L 254 429 L 253 429 L 252 429 L 251 429 L 250 429 L 249 429 L 248 429 L 247 429 L 246 429 L 245 429 L 244 429 L 243 429 L 242 429 L 241 429 L 240 429 L 239 429 L 238 429 L 237 429 L 236 429 L 235 429 L 234 428 L 233 428 L 232 428 L 231 429 L 230 429 L 229 429 L 228 429 L 227 429 L 226 429 L 225 429 L 224 429 L 223 429 L 222 429 L 221 429 L 220 429 L 219 429 L 218 429 L 217 429 L 216 429 L 215 429 L 214 429 L 213 429 L 212 429 L 211 429 L 210 430 L 209 430 L 208 430 L 207 430 L 206 430 L 205 430 L 204 430 L 203 431 L 202 431 L 201 431 L 200 431 L 199 431 L 198 431 L 197 432 L 196 432 L 195 432 L 194 432 L 193 432 L 192 432 L 191 433 L 190 433 L 189 433 L 188 434 L 187 434 L 186 434 L 185 434 L 184 434 L 183 434 L 182 434 L 181 434 L 180 434 L 179 433 L 179 432 L 178 431 L 178 430 L 177 429 L 177 428 L 177 427 L 177 426 L 176 425 L 176 424 L 175 423 L 175 422 L 175 421 L 175 420 L 174 419 L 174 418 L 173 417 L 173 416 L 172 415 L 172 414 L 171 413 L 171 412 L 171 411 L 171 410 L 170 409 L 170 408 L 169 407 L 169 406 L 169 405 L 168 404 L 168 403 L 168 402 L 167 401 L 167 400 L 166 399 L 166 398 L 165 397 L 165 396 L 164 395 L 164 394 L 164 393 L 163 392 L 162 391 L 162 390 L 162 389 L 161 388 L 161 387 L 160 386 L 160 385 L 159 384 L 159 383 L 158 382 L 158 381 L 158 380 L 158 379 L 158 378 L 158 377 L 158 376 L 158 375 L 159 374 L 159 373 L 159 372 L 159 371 L 159 370 L 159 369 L 159 368 L 159 367 L 159 366 L 159 365 L 160 364 L 160 363 L 160 362 L 160 361 L 160 360 L 161 359 L 161 358 L 161 357 L 161 356 L 161 355 L 161 354 L 161 353 L 162 352 L 162 351 L 162 350 L 162 349 L 163 348 L 163 347 L 163 346 L 164 345 L 164 344 L 164 343 L 164 342 L 164 341 L 165 340 L 165 339 L 166 338 L 166 337 L 166 336 L 166 335 L 167 334 L 167 333 L 168 332 L 168 331 L 169 330 L 169 329 L 169 328 L 170 327 L 170 326 L 171 325 L 171 324 L 170 324 L 170 325 L 169 326 L 169 327 L 168 328 L 167 329 L 167 330 L 166 331 L 166 332 L 165 333 L 165 334 L 164 335 L 164 336 L 163 337 L 163 338 L 163 339 L 162 340 L 162 341 L 162 342 L 161 343 L 161 344 L 160 345 L 160 346 L 159 347 L 159 348 L 159 349 L 159 350 L 158 351 L 158 352 L 158 353 L 158 354 L 157 355 L 157 356 L 156 357 L 156 358 L 156 359 L 155 360 L 155 361 L 155 362 L 154 363 L 154 364 L 154 365 L 154 366 L 154 367 L 153 368 L 153 369 L 153 370 L 152 371 L 152 372 L 152 373 L 151 374 L 151 375 L 151 376 L 151 377 L 151 378 L 151 379 L 151 380 L 152 381 L 152 382 L 153 383 L 153 384 L 153 385 L 153 386 L 153 387 L 153 388 L 154 389 L 155 390 L 156 391 L 156 392 L 157 393 L 157 394 L 158 395 L 158 396 L 158 397 L 159 398 L 159 399 L 159 400 L 160 401 L 160 402 L 161 403 L 161 404 L 162 405 L 162 406 L 162 407 L 163 408 L 163 409 L 164 410 L 164 411 L 165 412 L 165 413 L 165 414 L 165 415 L 166 416 L 166 417 L 166 418 L 167 419 L 167 420 L 167 421 L 167 422 L 168 423 L 168 424 L 168 425 L 168 426 L 169 427 L 169 428 L 169 429 L 170 430 L 170 431 L 170 432 L 170 433 L 170 434 L 170 435 L 170 436 L 171 437 L 171 438 L 171 439 L 171 440 L 171 441 L 172 442 L 173 442 L 174 442 L 175 442 L 176 442 L 177 443 L 177 444 L 177 445 L 177 446 L 178 446 L 179 446 L 180 445 L 181 444 L 182 444 L 183 443 L 184 442 L 185 442 L 186 441 L 187 441 L 188 441 L 189 441 L 190 441 L 191 440 L 192 440 L 193 440 L 194 439 L 195 439 L 196 439 L 197 438 L 198 438 L 199 438 L 200 438 L 201 437 L 202 437 L 203 437 L 204 437 L 205 437 L 206 436 L 207 436 L 208 436 L 209 436 L 210 436 L 211 436 L 212 436 L 213 436 L 214 436 L 215 436 L 216 436 L 217 436 L 218 435 L 219 435 L 220 435 L 221 435 L 222 435 L 223 435 L 224 435 L 225 435 L 226 435 L 227 435 L 228 435 L 229 435 L 230 436 L 231 436 L 232 436 L 233 436 L 234 436 L 235 436 L 236 437 L 237 437 L 238 437 L 239 437 L 240 437 L 241 437 L 242 437 L 243 438 L 244 438 L 245 438 L 246 438 L 247 439 L 248 439 L 249 439 L 250 440 L 251 440 L 252 441 L 253 441 L 254 441 L 255 442 L 256 442 L 257 443 L 258 444 L 259 444 L 259 443 L 260 442 L 261 441 L 262 441 L 263 441 L 264 441 L 265 441 L 266 441 L 267 440 L 268 439 L 269 438 L 270 437 L 271 437 L 272 436 L 273 435 L 274 434 L 275 433 L 276 433 L 277 432 L 278 431 L 279 430 L 280 429 L 281 429 L 282 428 L 283 427 L 284 427 L 285 426 L 286 425 L 287 425 L 288 424 L 289 423 L 290 422 L 291 422 L 292 421 L 293 420 L 294 420 L 295 419 L 296 419 L 297 418 L 298 417 L 299 417 L 300 416 L 301 415 L 302 414 L 303 414 L 304 413 L 305 412 L 306 412 L 307 411 L 308 410 L 309 410 L 310 410 L 311 409 L 312 409 L 313 408 L 314 408 L 315 407 L 316 406 L 317 406 L 318 405 L 319 405 L 320 404 L 321 404 L 322 403 L 323 403 L 324 402 L 325 401 L 326 401 L 327 400 L 328 400 L 329 399 L 330 399 L 331 398 L 332 398 L 333 398 L 334 397 L 335 397 L 336 396 L 337 396 L 338 395 L 339 395 L 340 394 L 341 394 L 342 394 L 343 393 L 344 393 L 345 393 L 346 393 L 347 393 L 348 394 L 348 395 L 348 396 L 348 397 L 348 398 L 348 399 L 347 400 L 347 401 L 346 402 L 346 403 L 345 404 L 345 405 L 344 406 L 344 407 L 344 408 L 343 409 L 343 410 L 342 411 L 342 412 L 341 413 L 341 414 L 341 415 L 340 416 L 340 417 L 340 418 L 339 419 L 339 420 L 339 421 L 338 422 L 338 423 L 338 424 L 338 425 L 337 426 L 337 427 L 337 428 L 337 429 L 337 430 L 336 431 L 336 432 L 336 433 L 335 434 L 335 435 L 335 436 L 334 437 L 333 438 L 332 439 L 331 440 L 330 441 L 329 442 L 328 443 L 327 443 L 326 444 L 325 445 L 324 445 L 323 446 L 322 447 L 321 447 L 320 448 L 319 449 L 318 449 L 317 450 L 316 450 L 315 451 L 314 452 L 313 452 L 312 453 L 311 453 L 310 453 L 309 454 L 308 455 L 307 455 L 306 456 L 305 457 L 304 457 L 303 457 L 302 458 L 301 458 L 300 459 L 299 460 L 298 460 L 297 460 L 296 460 L 295 461 L 294 461 L 293 462 L 292 462 L 291 463 L 290 463 L 289 464 L 288 464 L 287 464 L 286 465 L 285 465 L 284 465 L 283 466 L 282 466 L 281 466 L 280 467 L 279 467 L 278 467 L 277 467 L 276 468 L 275 469 L 275 470 L 275 471 L 274 472 L 273 472 L 272 472 L 271 472 L 270 472 L 269 472 L 268 473 L 268 474 L 267 475 L 267 476 L 266 477 L 266 478 L 265 479 L 265 480 L 264 481 L 264 482 L 264 483 L 263 484 L 262 485 L 262 486 L 261 487 L 261 488 L 260 489 L 259 490 L 259 491 L 258 492 L 257 493 L 257 494 L 256 495 L 255 496 L 255 497 L 254 498 L 253 499 L 252 500 L 251 501 L 251 502 L 250 503 L 249 504 L 249 505 L 248 506 L 247 507 L 246 508 L 246 509 L 245 510 L 244 511 L 243 512 L 242 513 L 242 514 L 241 515 L 240 516 L 239 517 L 238 518 L 237 519 L 236 520 L 235 521 L 234 522 L 233 523 L 232 524 L 231 525 L 230 526 L 229 527 L 228 528 L 227 529 L 226 530 L 225 531 L 224 532 L 223 532 L 222 533 L 221 534 L 220 534 L 219 535 L 218 536 L 217 536 L 216 537 L 215 538 L 214 539 L 213 540 L 212 541 L 211 541 L 210 542 L 209 543 L 208 543 L 207 544 L 207 545 L 207 546 L 207 547 L 208 548 L 209 549 L 209 550 L 209 551 L 209 552 L 209 553 L 208 554 L 207 554 L 206 554 L 205 555 L 205 556 L 206 557 L 206 558 L 207 559 L 208 560 L 209 561 L 209 562 L 210 563 L 210 564 L 210 565 L 211 566 L 211 567 L 212 568 L 212 569 L 212 570 L 213 571 L 213 572 L 213 573 L 214 574 L 214 575 L 214 576 L 215 577 L 215 578 L 215 579 L 216 580 L 216 581 L 216 582 L 216 583 L 217 584 L 217 585 L 217 586 L 218 587 L 218 588 L 218 589 L 218 590 L 219 591 L 219 592 L 219 593 L 220 594 L 220 595 L 220 596 L 220 597 L 221 598 L 221 599 L 221 600 L 221 601 L 221 602 L 221 603 L 222 604 L 222 605 L 222 606 L 222 607 L 222 608 L 223 609 L 223 610 L 223 611 L 223 612 L 223 613 L 223 614 L 223 615 L 223 616 L 224 617 L 224 618 L 224 619 L 224 620 L 224 621 L 224 622 L 225 623 L 225 624 L 225 625 L 225 626 L 225 627 L 225 628 L 225 629 L 225 630 L 225 631 L 225 632 L 225 633 L 225 634 L 225 635 L 225 636 L 225 637 L 225 638 L 225 639 L 225 640 L 225 641 L 225 642 L 225 643 L 225 644 L 225 645 L 224 646 L 224 647 L 224 648 L 225 649 L 225 650 L 225 651 L 225 652 L 225 653 L 225 654 L 225 655 L 226 656 L 226 657 L 227 658 L 228 659 L 229 660 L 229 661 L 230 662 L 231 663 L 232 664 L 233 664 L 234 665 L 235 666 L 235 667 L 236 668 L 237 669 L 238 670 L 239 670 L 240 671 L 241 672 L 242 673 L 243 674 L 244 675 L 245 675 L 246 676 L 247 677 L 248 678 L 249 678 L 250 679 L 251 680 L 252 681 L 253 681 L 254 682 L 255 682 L 256 683 L 257 683 L 258 684 L 259 684 L 260 685 L 261 685 L 262 685 L 263 686 L 264 686 L 265 687 L 266 687 L 267 687 L 268 688 L 269 688 L 270 688 L 271 688 L 272 689 L 273 689 L 274 689 L 274 688 L 273 688 L 272 688 L 271 687 L 270 687 L 269 686 L 268 685 L 267 685 L 266 684 L 265 683 L 264 683 L 263 682 L 262 682 L 261 681 L 260 680 L 259 679 L 258 679 L 257 678 L 256 677 L 255 676 L 254 675 L 253 675 L 252 674 L 251 673 L 250 672 L 249 671 L 248 670 L 247 669 L 246 668 L 245 667 L 244 666 L 243 665 L 242 664 L 242 663 L 241 662 L 240 661 L 239 660 L 238 659 L 237 658 L 237 657 L 236 656 L 235 655 L 235 654 L 234 653 L 234 652 L 233 651 L 233 650 L 233 649 L 233 648 L 233 647 L 233 646 L 233 645 L 233 644 L 233 643 L 233 642 L 233 641 L 233 640 L 232 639 L 232 638 L 232 637 L 232 636 L 232 635 L 232 634 L 232 633 L 232 632 L 232 631 L 232 630 L 232 629 L 232 628 L 232 627 L 232 626 L 232 625 L 231 624 L 231 623 L 231 622 L 231 621 L 231 620 L 230 619 L 230 618 L 230 617 L 230 616 L 230 615 L 230 614 L 230 613 L 229 612 L 229 611 L 229 610 L 229 609 L 228 608 L 228 607 L 228 606 L 228 605 L 228 604 L 228 603 L 227 602 L 227 601 L 227 600 L 227 599 L 227 598 L 226 597 L 226 596 L 226 595 L 226 594 L 225 593 L 225 592 L 225 591 L 225 590 L 224 589 L 224 588 L 224 587 L 223 586 L 223 585 L 223 584 L 223 583 L 223 582 L 222 581 L 222 580 L 222 579 L 222 578 L 221 577 L 221 576 L 221 575 L 221 574 L 220 573 L 220 572 L 220 571 L 219 570 L 219 569 L 219 568 L 219 567 L 218 566 L 218 565 L 218 564 L 218 563 L 217 562 L 217 561 L 217 560 L 217 559 L 216 558 L 216 557 L 216 556 L 216 555 L 216 554 L 217 553 L 218 552 L 219 551 L 220 550 L 221 549 L 222 548 L 223 547 L 224 546 L 225 545 L 226 544 L 227 543 L 228 542 L 229 541 L 230 540 L 231 539 L 231 538 L 232 537 L 233 536 L 234 535 L 235 534 L 236 533 L 237 532 L 237 531 L 238 530 L 239 529 L 240 528 L 241 527 L 242 526 L 243 525 L 244 524 L 244 523 L 245 522 L 246 521 L 247 520 L 248 519 L 248 518 L 249 517 L 250 516 L 251 515 L 251 514 L 252 513 L 253 512 L 254 511 L 255 510 L 255 509 L 256 508 L 257 507 L 258 506 L 259 505 L 259 504 L 260 503 L 261 502 L 262 501 L 263 500 L 263 499 L 264 498 L 264 497 L 265 496 L 265 495 L 266 494 L 267 494 L 268 493 L 268 492 L 269 491 L 269 490 L 270 489 L 271 488 L 271 487 L 272 486 L 273 485 L 274 484 L 274 483 L 275 482 L 276 481 L 277 480 L 278 479 L 279 478 L 280 477 L 281 477 L 282 476 L 283 476 L 284 475 L 285 475 L 286 474 L 287 474 L 288 473 L 289 473 L 290 472 L 291 472 L 292 471 L 293 471 L 294 470 L 295 470 L 296 469 L 297 469 L 298 468 L 299 468 L 300 467 L 301 466 L 302 465 L 303 465 L 304 464 L 305 463 L 306 462 L 307 462 L 308 462 L 309 461 L 310 461 L 311 460 L 312 460 L 313 459 L 314 459 L 315 458 L 316 457 L 317 457 L 318 456 L 319 455 L 320 455 L 321 454 L 322 454 L 323 453 L 324 452 L 325 451 L 326 451 L 327 450 L 328 449 L 329 448 L 330 447 L 331 447 L 332 447 L 333 447 L 334 447 L 335 447 L 336 448 L 336 449 L 336 450 L 336 451 L 337 452 L 337 453 L 337 454 L 337 455 L 338 456 L 338 457 L 339 458 L 339 459 L 339 460 L 340 461 L 340 462 L 341 463 L 341 464 L 341 465 L 342 466 L 342 467 L 343 468 L 343 469 L 344 470 L 344 471 L 344 472 L 344 473 L 344 474 L 343 475 L 343 476 L 342 477 L 341 478 L 341 479 L 340 480 L 340 481 L 339 482 L 338 483 L 338 484 L 337 485 L 336 486 L 335 487 L 334 488 L 334 489 L 333 490 L 332 491 L 331 492 L 330 493 L 329 494 L 329 495 L 328 496 L 328 497 L 328 498 L 327 499 L 326 499 L 325 499 L 324 500 L 323 501 L 322 502 L 321 503 L 320 503 L 319 504 L 318 505 L 317 506 L 316 507 L 315 508 L 314 508 L 313 509 L 312 510 L 311 511 L 310 512 L 309 512 L 308 513 L 307 514 L 306 515 L 305 515 L 304 516 L 303 517 L 303 518 L 304 519 L 304 520 L 304 521 L 304 522 L 304 523 L 303 524 L 302 524 L 301 525 L 301 526 L 302 527 L 302 528 L 302 529 L 302 530 L 303 531 L 303 532 L 303 533 L 303 534 L 303 535 L 303 536 L 304 537 L 304 538 L 304 539 L 304 540 L 304 541 L 305 542 L 305 543 L 305 544 L 305 545 L 305 546 L 305 547 L 305 548 L 305 549 L 305 550 L 305 551 L 305 552 L 305 553 L 305 554 L 305 555 L 306 556 L 306 557 L 306 558 L 306 559 L 306 560 L 306 561 L 305 562 L 305 563 L 305 564 L 305 565 L 305 566 L 305 567 L 305 568 L 305 569 L 305 570 L 305 571 L 305 572 L 305 573 L 305 574 L 305 575 L 305 576 L 305 577 L 305 578 L 305 579 L 305 580 L 305 581 L 304 582 L 304 583 L 304 584 L 304 585 L 304 586 L 304 587 L 304 588 L 304 589 L 304 590 L 304 591 L 303 592 L 303 593 L 303 594 L 303 595 L 303 596 L 303 597 L 302 598 L 302 599 L 302 600 L 302 601 L 302 602 L 302 603 L 301 604 L 301 605 L 301 606 L 301 607 L 301 608 L 301 609 L 300 610 L 300 611 L 300 612 L 300 613 L 299 614 L 299 615 L 299 616 L 299 617 L 298 618 L 298 619 L 297 620 L 297 621 L 297 622 L 297 623 L 296 624 L 296 625 L 295 626 L 294 627 L 294 628 L 294 629 L 295 630 L 296 631 L 297 632 L 298 633 L 298 634 L 298 635 L 298 636 L 298 637 L 298 638 L 299 639 L 300 640 L 301 641 L 301 642 L 302 643 L 303 644 L 304 645 L 305 646 L 305 647 L 306 648 L 306 649 L 307 650 L 308 651 L 308 652 L 309 653 L 309 654 L 310 655 L 311 656 L 312 657 L 312 658 L 313 659 L 313 660 L 314 661 L 314 662 L 315 663 L 316 664 L 316 665 L 317 666 L 318 667 L 318 668 L 319 669 L 319 670 L 319 671 L 320 672 L 321 673 L 321 674 L 322 675 L 322 676 L 323 677 L 323 678 L 324 679 L 324 680 L 325 681 L 325 682 L 326 683 L 326 684 L 327 685 L 327 686 L 327 687 L 327 688 L 328 689 L 328 690 L 329 691 L 329 692 L 330 693 L 330 694 L 331 695 L 331 696 L 331 697 L 332 698 L 332 699 L 333 700 L 333 701 L 333 702 L 334 703 L 334 704 L 334 705 L 335 706 L 335 707 L 335 708 L 335 709 L 335 710 L 336 711 L 336 712 L 336 713 L 336 714 L 337 715 L 337 716 L 337 717 L 337 718 L 337 719 L 337 720 L 338 721 L 339 721 L 340 721 L 341 722 L 342 723 L 342 724 L 342 725 L 342 726 L 343 727 L 343 728 L 344 729 L 345 730 L 346 731 L 347 732 L 348 733 L 349 733 L 350 734 L 351 735 L 352 736 L 353 736 L 354 737 L 355 738 L 356 739 L 357 739 L 358 740 L 359 741 L 360 742 L 361 742 L 362 743 L 363 743 L 364 744 L 365 745 L 366 745 L 367 746 L 368 747 L 369 747 L 370 748 L 371 748 L 372 749 L 373 749 L 374 750 L 375 750 L 376 751 L 377 751 L 378 752 L 379 752 L 380 752 L 381 753 L 382 753 L 383 754 L 384 754 L 385 754 L 386 754 L 387 755 L 388 755 L 388 754 L 387 754 L 386 753 L 385 753 L 384 752 L 383 751 L 382 751 L 381 750 L 380 750 L 379 749 L 378 748 L 377 748 L 376 747 L 375 746 L 374 746 L 373 745 L 372 744 L 371 743 L 370 743 L 369 742 L 368 741 L 367 740 L 366 740 L 365 739 L 364 738 L 363 737 L 362 736 L 361 735 L 360 734 L 359 733 L 358 732 L 357 731 L 356 730 L 355 729 L 354 728 L 353 727 L 352 726 L 351 725 L 351 724 L 350 723 L 349 722 L 348 721 L 348 720 L 347 719 L 347 718 L 346 717 L 346 716 L 345 715 L 345 714 L 345 713 L 345 712 L 344 711 L 344 710 L 343 709 L 343 708 L 343 707 L 342 706 L 342 705 L 342 704 L 341 703 L 341 702 L 340 701 L 340 700 L 340 699 L 339 698 L 339 697 L 339 696 L 338 695 L 338 694 L 337 693 L 337 692 L 336 691 L 336 690 L 336 689 L 335 688 L 335 687 L 334 686 L 334 685 L 333 684 L 333 683 L 332 682 L 332 681 L 331 680 L 331 679 L 331 678 L 330 677 L 330 676 L 329 675 L 329 674 L 328 673 L 328 672 L 327 671 L 326 670 L 326 669 L 326 668 L 325 667 L 325 666 L 324 665 L 324 664 L 323 663 L 323 662 L 322 661 L 322 660 L 322 659 L 321 658 L 321 657 L 320 656 L 320 655 L 319 654 L 318 653 L 318 652 L 317 651 L 317 650 L 316 649 L 316 648 L 315 647 L 315 646 L 314 645 L 314 644 L 313 643 L 313 642 L 312 641 L 311 640 L 311 639 L 310 638 L 310 637 L 309 636 L 308 635 L 308 634 L 307 633 L 307 632 L 307 631 L 307 630 L 307 629 L 307 628 L 307 627 L 307 626 L 307 625 L 307 624 L 307 623 L 308 622 L 308 621 L 308 620 L 308 619 L 308 618 L 308 617 L 308 616 L 308 615 L 308 614 L 309 613 L 309 612 L 309 611 L 309 610 L 309 609 L 309 608 L 310 607 L 310 606 L 310 605 L 310 604 L 310 603 L 310 602 L 310 601 L 310 600 L 310 599 L 311 598 L 311 597 L 311 596 L 311 595 L 311 594 L 311 593 L 311 592 L 311 591 L 311 590 L 311 589 L 311 588 L 312 587 L 312 586 L 312 585 L 312 584 L 312 583 L 312 582 L 312 581 L 312 580 L 312 579 L 312 578 L 312 577 L 312 576 L 312 575 L 312 574 L 313 573 L 313 572 L 313 571 L 313 570 L 313 569 L 313 568 L 313 567 L 313 566 L 313 565 L 313 564 L 313 563 L 313 562 L 313 561 L 313 560 L 313 559 L 313 558 L 313 557 L 313 556 L 313 555 L 313 554 L 313 553 L 313 552 L 313 551 L 313 550 L 313 549 L 313 548 L 313 547 L 313 546 L 312 545 L 312 544 L 312 543 L 312 542 L 312 541 L 312 540 L 312 539 L 312 538 L 312 537 L 312 536 L 312 535 L 312 534 L 312 533 L 312 532 L 312 531 L 312 530 L 312 529 L 312 528 L 312 527 L 312 526 L 312 525 L 312 524 L 313 523 L 314 522 L 315 521 L 316 520 L 317 519 L 318 518 L 319 517 L 320 516 L 321 515 L 322 514 L 322 513 L 323 512 L 324 511 L 325 510 L 326 509 L 327 508 L 328 507 L 329 506 L 330 505 L 330 504 L 331 503 L 332 502 L 332 501 L 333 500 L 334 499 L 335 498 L 336 497 L 336 496 L 337 495 L 338 494 L 338 493 L 339 492 L 340 491 L 341 490 L 341 489 L 342 488 L 343 487 L 343 486 L 344 485 L 345 484 L 346 483 L 347 483 L 348 483 L 349 483 L 350 483 L 351 484 L 352 485 L 353 486 L 354 487 L 354 488 L 355 489 L 356 490 L 356 491 L 357 492 L 358 493 L 359 494 L 360 495 L 360 496 L 361 497 L 362 498 L 363 499 L 363 500 L 364 501 L 365 502 L 366 503 L 366 504 L 367 505 L 368 506 L 369 507 L 370 508 L 371 509 L 372 510 L 373 511 L 374 512 L 374 513 L 375 514 L 376 515 L 377 515 L 378 516 L 379 517 L 380 518 L 381 519 L 382 520 L 383 521 L 384 522 L 385 523 L 386 523 L 387 524 L 388 525 L 389 526 L 390 527 L 391 528 L 392 528 L 393 529 L 394 530 L 395 530 L 396 531 L 397 532 L 398 532 L 399 533 L 400 533 L 401 534 L 402 534 L 403 535 L 404 536 L 405 536 L 406 537 L 407 537 L 408 537 L 409 538 L 410 538 L 411 539 L 412 539 L 413 539 L 414 540 L 415 540 L 416 540 L 417 540 L 418 540 L 419 540 L 420 540 L 421 540 L 422 540 L 423 540 L 424 540 L 425 540 L 426 540 L 427 539 L 428 539 L 429 539 L 430 539 L 431 539 L 432 538 L 433 538 L 434 538 L 435 537 L 436 537 L 437 537 L 438 536 L 439 536 L 440 536 L 441 535 L 442 535 L 443 534 L 444 534 L 445 533 L 446 533 L 447 532 L 448 532 L 449 531 L 450 530 L 451 530 L 452 529 L 453 528 L 454 527 L 455 527 L 456 526 L 457 525 L 458 524 L 459 523 L 460 523 L 461 522 L 462 521 L 463 520 L 464 519 L 465 519 L 466 518 L 467 517 L 468 516 L 469 515 L 470 514 L 471 513 L 472 512 L 473 511 L 474 510 L 475 509 L 476 508 L 477 507 L 477 506 L 478 505 L 479 504 L 480 503 L 481 502 L 481 501 L 482 500 L 483 499 L 484 498 L 485 497 L 485 496 L 486 495 L 486 494 L 487 493 L 488 492 L 489 491 L 490 490 L 490 489 L 490 488 L 491 487 L 492 487 L 493 487 L 494 487 L 495 487 L 496 487 L 497 488 L 498 489 L 499 490 L 499 491 L 500 492 L 501 493 L 501 494 L 502 495 L 503 496 L 503 497 L 504 498 L 505 499 L 505 500 L 506 501 L 507 502 L 508 503 L 508 504 L 509 505 L 510 506 L 511 507 L 512 508 L 513 509 L 514 510 L 514 511 L 515 512 L 516 513 L 517 514 L 518 515 L 519 516 L 519 517 L 520 518 L 521 519 L 522 520 L 523 521 L 524 522 L 525 523 L 526 524 L 527 525 L 528 526 L 529 527 L 529 528 L 530 529 L 530 530 L 530 531 L 530 532 L 530 533 L 530 534 L 530 535 L 530 536 L 530 537 L 530 538 L 530 539 L 530 540 L 529 541 L 529 542 L 529 543 L 530 544 L 530 545 L 530 546 L 530 547 L 530 548 L 530 549 L 530 550 L 530 551 L 530 552 L 530 553 L 530 554 L 530 555 L 530 556 L 530 557 L 530 558 L 530 559 L 530 560 L 530 561 L 530 562 L 530 563 L 530 564 L 530 565 L 530 566 L 530 567 L 530 568 L 530 569 L 530 570 L 531 571 L 531 572 L 531 573 L 531 574 L 531 575 L 531 576 L 531 577 L 531 578 L 531 579 L 531 580 L 531 581 L 531 582 L 532 583 L 532 584 L 532 585 L 532 586 L 532 587 L 532 588 L 532 589 L 533 590 L 533 591 L 533 592 L 533 593 L 533 594 L 533 595 L 533 596 L 533 597 L 534 598 L 534 599 L 534 600 L 534 601 L 534 602 L 534 603 L 534 604 L 535 605 L 535 606 L 535 607 L 535 608 L 535 609 L 535 610 L 535 611 L 536 612 L 536 613 L 536 614 L 536 615 L 536 616 L 536 617 L 536 618 L 537 619 L 537 620 L 538 621 L 538 622 L 538 623 L 538 624 L 538 625 L 538 626 L 538 627 L 539 628 L 539 629 L 539 630 L 539 631 L 539 632 L 539 633 L 539 634 L 539 635 L 539 636 L 539 637 L 538 638 L 538 639 L 537 640 L 537 641 L 537 642 L 536 643 L 536 644 L 535 645 L 534 646 L 533 647 L 533 648 L 532 649 L 532 650 L 531 651 L 531 652 L 530 653 L 530 654 L 529 655 L 529 656 L 528 657 L 527 658 L 527 659 L 526 660 L 526 661 L 525 662 L 525 663 L 524 664 L 524 665 L 524 666 L 523 667 L 523 668 L 523 669 L 522 670 L 522 671 L 521 672 L 521 673 L 520 674 L 520 675 L 519 676 L 519 677 L 518 678 L 518 679 L 518 680 L 517 681 L 517 682 L 516 683 L 516 684 L 515 685 L 515 686 L 515 687 L 514 688 L 514 689 L 514 690 L 513 691 L 513 692 L 512 693 L 512 694 L 511 695 L 511 696 L 511 697 L 510 698 L 510 699 L 510 700 L 509 701 L 509 702 L 509 703 L 508 704 L 508 705 L 507 706 L 507 707 L 507 708 L 507 709 L 506 710 L 506 711 L 506 712 L 505 713 L 505 714 L 504 715 L 504 716 L 504 717 L 503 718 L 503 719 L 503 720 L 502 721 L 502 722 L 501 723 L 500 724 L 499 725 L 499 726 L 498 727 L 497 728 L 496 729 L 495 730 L 494 731 L 493 732 L 492 733 L 491 734 L 490 735 L 489 736 L 488 737 L 487 738 L 486 739 L 485 740 L 484 740 L 483 741 L 482 742 L 481 743 L 480 744 L 479 745 L 478 745 L 477 746 L 476 747 L 475 747 L 474 748 L 473 748 L 472 749 L 471 749 L 470 750 L 469 750 L 468 751 L 467 751 L 466 752 L 465 752 L 464 753 L 463 753 L 462 754 L 461 754 L 460 755 L 459 755 L 458 756 L 457 756 L 456 756 L 455 756 L 454 757 L 455 758 L 456 758 L 457 757 L 458 757 L 459 757 L 460 757 L 461 757 L 462 757 L 463 756 L 464 756 L 465 756 L 466 756 L 467 755 L 468 755 L 469 755 L 470 754 L 471 754 L 472 753 L 473 753 L 474 753 L 475 752 L 476 752 L 477 751 L 478 751 L 479 750 L 480 750 L 481 749 L 482 749 L 483 748 L 484 748 L 485 747 L 486 747 L 487 746 L 488 746 L 489 745 L 490 744 L 491 744 L 492 743 L 493 743 L 494 742 L 495 741 L 496 740 L 497 740 L 498 739 L 499 738 L 500 738 L 501 737 L 502 736 L 503 735 L 504 734 L 505 734 L 506 733 L 507 732 L 508 731 L 508 730 L 508 729 L 508 728 L 508 727 L 509 726 L 510 725 L 511 724 L 511 723 L 511 722 L 511 721 L 512 720 L 512 719 L 512 718 L 512 717 L 513 716 L 513 715 L 513 714 L 513 713 L 514 712 L 514 711 L 514 710 L 514 709 L 515 708 L 515 707 L 515 706 L 515 705 L 515 704 L 516 703 L 516 702 L 516 701 L 517 700 L 517 699 L 517 698 L 518 697 L 518 696 L 518 695 L 518 694 L 519 693 L 519 692 L 519 691 L 520 690 L 520 689 L 520 688 L 521 687 L 521 686 L 521 685 L 522 684 L 522 683 L 523 682 L 523 681 L 524 680 L 524 679 L 525 678 L 525 677 L 526 676 L 526 675 L 527 674 L 527 673 L 528 672 L 528 671 L 529 670 L 529 669 L 530 668 L 530 667 L 531 666 L 531 665 L 532 664 L 533 663 L 533 662 L 534 661 L 534 660 L 535 659 L 536 658 L 536 657 L 537 656 L 538 655 L 538 654 L 538 653 L 539 652 L 540 651 L 540 650 L 541 649 L 542 648 L 543 647 L 543 646 L 544 645 L 545 644 L 546 643 L 546 642 L 547 641 L 548 640 L 548 639 L 548 638 L 548 637 L 548 636 L 548 635 L 549 634 L 550 633 L 550 632 L 550 631 L 550 630 L 549 629 L 548 628 L 548 627 L 548 626 L 547 625 L 547 624 L 547 623 L 546 622 L 546 621 L 545 620 L 545 619 L 545 618 L 545 617 L 544 616 L 544 615 L 544 614 L 543 613 L 543 612 L 543 611 L 543 610 L 543 609 L 542 608 L 542 607 L 542 606 L 542 605 L 542 604 L 541 603 L 541 602 L 541 601 L 541 600 L 541 599 L 541 598 L 541 597 L 541 596 L 541 595 L 541 594 L 541 593 L 541 592 L 541 591 L 541 590 L 542 589 L 541 588 L 541 587 L 541 586 L 541 585 L 541 584 L 541 583 L 541 582 L 541 581 L 541 580 L 540 579 L 540 578 L 540 577 L 540 576 L 540 575 L 540 574 L 540 573 L 540 572 L 540 571 L 540 570 L 540 569 L 540 568 L 540 567 L 540 566 L 540 565 L 540 564 L 540 563 L 540 562 L 540 561 L 540 560 L 540 559 L 540 558 L 540 557 L 540 556 L 540 555 L 540 554 L 540 553 L 540 552 L 540 551 L 540 550 L 540 549 L 540 548 L 540 547 L 540 546 L 540 545 L 540 544 L 540 543 L 540 542 L 541 541 L 541 540 L 541 539 L 541 538 L 541 537 L 541 536 L 541 535 L 541 534 L 541 533 L 541 532 L 541 531 L 541 530 L 542 529 L 542 528 L 541 527 L 540 526 L 540 525 L 540 524 L 540 523 L 540 522 L 540 521 L 540 520 L 539 520 L 538 519 L 537 518 L 536 518 L 535 517 L 534 516 L 533 516 L 532 515 L 531 514 L 530 513 L 529 512 L 528 511 L 527 510 L 526 510 L 525 509 L 524 508 L 523 507 L 522 506 L 521 505 L 520 504 L 519 503 L 518 502 L 518 501 L 517 500 L 516 499 L 515 498 L 514 497 L 513 496 L 513 495 L 512 494 L 511 493 L 510 492 L 509 491 L 508 490 L 507 489 L 507 488 L 506 487 L 506 486 L 505 485 L 505 484 L 504 483 L 504 482 L 503 481 L 502 480 L 502 479 L 501 478 L 500 477 L 500 476 L 499 475 L 499 474 L 499 473 L 499 472 L 499 471 L 499 470 L 500 469 L 500 468 L 501 467 L 501 466 L 501 465 L 501 464 L 502 463 L 502 462 L 503 461 L 503 460 L 503 459 L 504 458 L 504 457 L 504 456 L 505 455 L 505 454 L 505 453 L 505 452 L 506 451 L 507 451 L 508 451 L 509 451 L 510 451 L 511 452 L 512 453 L 513 453 L 514 454 L 515 455 L 516 456 L 517 456 L 518 457 L 519 458 L 520 458 L 521 459 L 522 459 L 523 460 L 524 461 L 525 462 L 526 462 L 527 463 L 528 464 L 529 464 L 530 465 L 531 465 L 532 466 L 533 467 L 534 467 L 535 468 L 536 469 L 537 470 L 538 470 L 539 471 L 540 471 L 541 472 L 542 473 L 543 473 L 544 474 L 545 475 L 546 475 L 547 476 L 548 476 L 549 477 L 550 477 L 551 478 L 552 478 L 553 479 L 554 479 L 555 480 L 556 480 L 557 481 L 558 481 L 559 482 L 560 482 L 561 483 L 562 483 L 563 484 L 563 485 L 564 486 L 565 487 L 566 488 L 567 489 L 568 490 L 569 491 L 570 492 L 570 493 L 571 494 L 572 495 L 573 496 L 573 497 L 574 497 L 575 498 L 576 499 L 577 500 L 577 501 L 577 502 L 578 503 L 578 504 L 579 505 L 580 506 L 581 507 L 582 508 L 582 509 L 583 510 L 584 511 L 585 512 L 586 513 L 587 514 L 588 515 L 589 516 L 590 517 L 590 518 L 591 519 L 591 520 L 592 521 L 593 522 L 594 523 L 595 524 L 596 525 L 597 526 L 597 527 L 598 528 L 599 529 L 600 529 L 601 529 L 602 530 L 602 531 L 602 532 L 603 533 L 603 534 L 604 535 L 605 536 L 606 537 L 607 538 L 607 539 L 608 540 L 609 540 L 610 541 L 610 542 L 611 543 L 612 544 L 613 545 L 614 546 L 615 547 L 616 548 L 617 549 L 618 550 L 619 551 L 620 552 L 621 553 L 622 554 L 623 555 L 624 556 L 625 557 L 626 558 L 627 559 L 627 560 L 627 561 L 627 562 L 627 563 L 627 564 L 627 565 L 627 566 L 627 567 L 626 568 L 626 569 L 626 570 L 625 571 L 625 572 L 625 573 L 625 574 L 624 575 L 624 576 L 624 577 L 624 578 L 624 579 L 623 580 L 623 581 L 623 582 L 623 583 L 623 584 L 622 585 L 622 586 L 622 587 L 622 588 L 621 589 L 621 590 L 621 591 L 621 592 L 621 593 L 621 594 L 620 595 L 620 596 L 620 597 L 619 598 L 619 599 L 619 600 L 619 601 L 619 602 L 618 603 L 618 604 L 618 605 L 618 606 L 618 607 L 618 608 L 618 609 L 617 610 L 617 611 L 617 612 L 617 613 L 617 614 L 617 615 L 617 616 L 616 617 L 616 618 L 616 619 L 616 620 L 616 621 L 616 622 L 615 623 L 615 624 L 615 625 L 615 626 L 615 627 L 615 628 L 615 629 L 615 630 L 615 631 L 615 632 L 615 633 L 614 634 L 614 635 L 614 636 L 614 637 L 614 638 L 614 639 L 614 640 L 614 641 L 614 642 L 614 643 L 614 644 L 614 645 L 614 646 L 614 647 L 614 648 L 614 649 L 614 650 L 614 651 L 614 652 L 614 653 L 614 654 L 614 655 L 614 656 L 614 657 L 613 658 L 613 659 L 613 660 L 612 661 L 611 662 L 611 663 L 610 664 L 610 665 L 609 666 L 608 666 L 607 667 L 607 668 L 606 669 L 605 670 L 604 671 L 603 672 L 602 673 L 601 674 L 600 675 L 599 676 L 598 677 L 597 678 L 596 679 L 595 680 L 594 680 L 593 681 L 592 682 L 591 683 L 590 684 L 589 684 L 588 685 L 587 686 L 586 687 L 585 688 L 584 688 L 583 689 L 582 689 L 581 690 L 580 691 L 579 691 L 580 691 L 581 690 L 582 690 L 583 690 L 584 690 L 585 689 L 586 689 L 587 689 L 588 688 L 589 688 L 590 687 L 591 687 L 592 686 L 593 686 L 594 685 L 595 685 L 596 684 L 597 683 L 598 683 L 599 682 L 600 681 L 601 680 L 602 680 L 603 679 L 604 678 L 605 677 L 606 676 L 607 675 L 608 675 L 609 674 L 610 673 L 611 672 L 611 671 L 612 670 L 613 669 L 614 668 L 615 668 L 616 667 L 617 666 L 617 665 L 618 664 L 619 663 L 620 662 L 621 661 L 621 660 L 620 659 L 619 658 L 619 657 L 619 656 L 619 655 L 619 654 L 620 653 L 621 653 L 621 652 L 621 651 L 620 650 L 620 649 L 620 648 L 620 647 L 620 646 L 620 645 L 620 644 L 620 643 L 620 642 L 620 641 L 620 640 L 620 639 L 620 638 L 620 637 L 620 636 L 620 635 L 620 634 L 620 633 L 620 632 L 620 631 L 620 630 L 620 629 L 620 628 L 620 627 L 620 626 L 620 625 L 621 624 L 621 623 L 621 622 L 621 621 L 621 620 L 621 619 L 621 618 L 621 617 L 621 616 L 621 615 L 621 614 L 622 613 L 622 612 L 622 611 L 622 610 L 622 609 L 622 608 L 622 607 L 623 606 L 623 605 L 623 604 L 623 603 L 623 602 L 623 601 L 623 600 L 624 599 L 624 598 L 624 597 L 625 596 L 625 595 L 625 594 L 625 593 L 626 592 L 626 591 L 626 590 L 626 589 L 627 588 L 627 587 L 627 586 L 627 585 L 628 584 L 628 583 L 628 582 L 628 581 L 629 580 L 629 579 L 629 578 L 630 577 L 630 576 L 630 575 L 631 574 L 631 573 L 631 572 L 631 571 L 632 570 L 632 569 L 632 568 L 633 567 L 634 566 L 634 565 L 635 564 L 636 563 L 636 562 L 636 561 L 635 561 L 634 560 L 633 559 L 633 558 L 633 557 L 633 556 L 633 555 L 633 554 L 634 553 L 634 552 L 635 551 L 634 550 L 633 550 L 632 549 L 631 548 L 630 548 L 629 547 L 628 546 L 627 545 L 626 544 L 625 543 L 624 543 L 623 542 L 622 541 L 621 541 L 620 540 L 619 539 L 618 539 L 617 538 L 616 537 L 615 536 L 614 535 L 613 534 L 612 533 L 611 532 L 610 531 L 609 530 L 608 529 L 607 528 L 606 527 L 605 527 L 604 526 L 603 525 L 603 524 L 602 523 L 601 522 L 600 521 L 599 520 L 598 519 L 597 518 L 597 517 L 596 516 L 595 515 L 594 514 L 593 513 L 593 512 L 592 511 L 591 510 L 590 509 L 590 508 L 589 507 L 588 506 L 587 505 L 586 504 L 586 503 L 585 502 L 584 501 L 583 500 L 583 499 L 582 498 L 581 497 L 581 496 L 580 495 L 579 494 L 578 493 L 578 492 L 577 491 L 577 490 L 576 489 L 575 488 L 575 487 L 574 486 L 573 485 L 573 484 L 573 483 L 572 482 L 572 481 L 571 480 L 571 479 L 570 478 L 570 477 L 569 476 L 568 475 L 568 474 L 568 473 L 567 473 L 566 472 L 565 472 L 564 471 L 563 471 L 562 471 L 561 471 L 560 470 L 559 470 L 558 470 L 557 470 L 556 469 L 555 469 L 554 469 L 553 468 L 552 468 L 551 467 L 550 467 L 549 466 L 548 466 L 547 466 L 546 465 L 545 465 L 544 464 L 543 464 L 542 463 L 541 463 L 540 462 L 539 462 L 538 461 L 537 460 L 536 460 L 535 460 L 534 459 L 533 458 L 532 458 L 531 457 L 530 456 L 529 456 L 528 455 L 527 454 L 526 454 L 525 453 L 524 453 L 523 452 L 522 451 L 521 450 L 520 449 L 519 448 L 518 448 L 517 447 L 516 447 L 515 446 L 515 445 L 514 444 L 513 443 L 512 442 L 511 441 L 511 440 L 510 439 L 509 438 L 508 437 L 507 436 L 507 435 L 506 434 L 506 433 L 506 432 L 506 431 L 506 430 L 505 429 L 505 428 L 505 427 L 504 426 L 504 425 L 504 424 L 504 423 L 503 422 L 503 421 L 503 420 L 502 419 L 502 418 L 502 417 L 501 416 L 501 415 L 501 414 L 500 413 L 500 412 L 500 411 L 499 410 L 499 409 L 498 408 L 498 407 L 497 406 L 497 405 L 496 404 L 496 403 L 496 402 L 496 401 L 496 400 L 496 399 L 497 398 L 498 398 L 499 398 L 500 398 L 501 398 L 502 399 L 503 400 L 504 400 L 505 400 L 506 401 L 507 401 L 508 401 L 509 402 L 510 403 L 511 403 L 512 404 L 513 404 L 514 405 L 515 406 L 516 406 L 517 407 L 518 407 L 519 408 L 520 409 L 521 409 L 522 410 L 523 410 L 524 411 L 525 411 L 526 412 L 527 412 L 528 412 L 529 413 L 530 414 L 531 414 L 532 415 L 533 415 L 534 416 L 535 417 L 536 418 L 537 419 L 538 419 L 539 420 L 540 420 L 541 421 L 542 422 L 543 422 L 544 423 L 545 424 L 546 425 L 547 425 L 548 426 L 549 427 L 550 427 L 551 428 L 552 429 L 553 429 L 554 430 L 555 431 L 556 431 L 557 432 L 558 433 L 559 434 L 560 434 L 561 435 L 562 436 L 563 437 L 564 438 L 565 438 L 566 439 L 567 440 L 568 441 L 569 442 L 570 443 L 571 444 L 572 445 L 573 445 L 574 445 L 575 445 L 576 445 L 577 445 L 578 446 L 579 447 L 580 447 L 581 447 L 582 446 L 583 446 L 584 445 L 585 445 L 586 444 L 587 443 L 588 443 L 589 443 L 590 443 L 591 443 L 592 442 L 593 442 L 594 442 L 595 442 L 596 441 L 597 441 L 598 441 L 599 441 L 600 441 L 601 441 L 602 441 L 603 441 L 604 440 L 605 440 L 606 440 L 607 440 L 608 440 L 609 440 L 610 440 L 611 440 L 612 440 L 613 440 L 614 440 L 615 440 L 616 440 L 617 440 L 618 440 L 619 440 L 620 440 L 621 440 L 622 440 L 623 440 L 624 440 L 625 441 L 626 441 L 627 441 L 628 441 L 629 441 L 630 441 L 631 441 L 632 441 L 633 442 L 634 442 L 635 442 L 636 442 L 637 443 L 638 443 L 639 443 L 640 443 L 641 444 L 642 444 L 643 444 L 644 444 L 645 445 L 646 445 L 647 446 L 648 446 L 649 446 L 650 446 L 650 445 L 651 444 L 652 444 L 653 444 L 654 444 L 655 444 L 656 445 L 656 446 L 656 447 L 656 448 L 656 449 L 657 450 L 658 451 L 659 452 L 660 452 L 660 451 L 660 450 L 660 449 L 661 448 L 662 448 L 663 448 L 664 448 L 665 448 L 666 448 L 666 447 L 666 446 L 666 445 L 666 444 L 666 443 L 666 442 L 667 441 L 667 440 L 667 439 L 667 438 L 667 437 L 667 436 L 667 435 L 668 434 L 668 433 L 668 432 L 668 431 L 668 430 L 669 429 L 669 428 L 669 427 L 669 426 L 670 425 L 670 424 L 670 423 L 671 422 L 671 421 L 671 420 L 671 419 L 671 418 L 671 417 L 672 416 L 673 415 L 673 414 L 674 413 L 674 412 L 674 411 L 675 410 L 675 409 L 675 408 L 676 407 L 676 406 L 675 406 L 674 406 L 673 405 L 672 405 L 671 405 L 671 406 L 670 407 L 670 408 L 669 409 L 669 410 L 669 411 L 668 412 L 668 413 L 668 414 L 667 415 L 667 416 L 667 417 L 666 418 L 666 419 L 666 420 L 666 421 L 665 422 L 665 423 L 664 424 L 664 425 L 663 426 L 663 427 L 663 428 L 663 429 L 662 430 L 662 431 L 662 432 L 661 433 L 661 434 L 661 435 L 661 436 L 660 437 L 660 438 L 660 439 L 659 440 L 658 441 L 657 442 L 656 442 L 655 442 L 654 442 L 653 442 L 652 442 L 651 442 L 650 442 L 649 442 L 648 441 L 647 440 L 646 440 L 645 439 L 644 439 L 643 439 L 642 439 L 641 439 L 640 439 L 639 438 L 638 438 L 637 438 L 636 438 L 635 437 L 634 437 L 633 437 L 632 437 L 631 437 L 630 437 L 629 436 L 628 436 L 627 436 L 626 436 L 625 436 L 624 436 L 623 435 L 622 435 L 621 435 L 620 435 L 619 435 L 618 435 L 617 435 L 616 435 L 615 435 L 614 435 L 613 435 L 612 435 L 611 435 L 610 435 L 609 435 L 608 434 L 607 434 L 606 434 L 605 434 L 604 434 L 603 434 L 602 434 L 601 434 L 600 434 L 599 434 L 598 434 L 597 434 L 596 434 L 595 434 L 594 434 L 593 434 L 592 434 L 591 435 L 590 435 L 589 435 L 588 435 L 587 435 L 586 435 L 585 435 L 584 435 L 583 435 L 582 435 L 581 434 L 580 434 L 579 434 L 578 433 L 577 433 L 576 432 L 575 432 L 574 431 L 573 430 L 572 430 L 571 429 L 570 428 L 569 428 L 568 427 L 567 426 L 566 426 L 565 425 L 564 425 L 563 424 L 562 423 L 561 423 L 560 422 L 559 421 L 558 421 L 557 420 L 556 419 L 555 419 L 554 418 L 553 417 L 552 417 L 551 416 L 550 416 L 549 415 L 548 415 L 547 414 L 546 413 L 545 412 L 544 412 L 543 411 L 542 410 L 541 410 L 540 409 L 539 409 L 538 408 L 537 408 L 536 407 L 535 406 L 534 406 L 533 405 L 532 405 L 531 404 L 530 404 L 529 403 L 528 403 L 527 402 L 526 402 L 525 401 L 524 401 L 523 400 L 522 400 L 521 399 L 520 399 L 519 398 L 518 397 L 517 397 L 516 397 L 515 396 L 514 396 L 513 395 L 512 395 L 511 395 L 510 394 L 509 394 L 508 393 L 507 393 L 506 392 L 505 392 L 504 391 L 503 390 L 502 390 L 501 390 L 500 389 L 499 389 L 498 388 L 497 388 L 496 387 L 495 387 L 494 386 L 493 386 L 492 386 L 491 385 L 490 385 L 489 385 L 488 384 L 487 384 L 486 383 L 485 382 L 484 381 L 483 380 L 482 379 L 481 378 L 480 377 L 479 376 L 478 375 L 477 374 L 476 373 L 475 372 L 474 371 L 473 370 L 472 370 L 471 369 L 470 368 L 469 367 L 468 366 L 467 366 L 466 365 L 465 365 L 464 364 L 463 364 L 462 363 L 461 363 L 460 363 L 459 362 L 458 362 L 457 362 L 456 362 L 455 362 L 454 361 L 454 360 L 454 359 L 454 358 L 454 357 L 455 356 L 456 355 L 457 354 L 458 354 L 459 354 L 460 354 L 461 354 L 462 354 L 463 354 L 464 354 L 465 354 L 466 354 L 467 353 L 468 353 L 469 353 L 470 353 L 471 353 L 472 353 L 473 353 L 474 353 L 475 353 L 476 353 L 477 354 L 478 354 L 479 354 L 480 354 L 481 354 L 482 354 L 483 354 L 484 354 L 485 354 L 486 354 L 487 355 L 488 355 L 489 355 L 490 355 L 491 355 L 492 355 L 493 355 L 494 355 L 495 355 L 496 356 L 497 356 L 498 356 L 499 356 L 500 356 L 501 357 L 502 357 L 503 357 L 504 357 L 505 357 L 506 358 L 507 358 L 508 358 L 509 358 L 510 358 L 511 359 L 512 359 L 513 359 L 514 359 L 515 360 L 516 360 L 517 360 L 518 361 L 519 361 L 520 361 L 521 362 L 522 362 L 523 362 L 524 363 L 525 363 L 526 364 L 527 364 L 528 364 L 529 365 L 530 366 L 531 366 L 532 367 L 533 367 L 534 368 L 535 369 L 536 369 L 537 369 L 538 369 L 539 369 L 540 369 L 541 369 L 542 369 L 543 370 L 544 370 L 545 370 L 546 370 L 547 369 L 548 369 L 549 369 L 550 369 L 551 369 L 552 369 L 553 370 L 554 369 L 555 368 L 556 367 L 557 366 L 558 365 L 559 365 L 560 364 L 561 363 L 562 362 L 563 361 L 564 360 L 565 360 L 566 359 L 567 358 L 568 357 L 569 357 L 570 356 L 571 356 L 572 355 L 573 355 L 574 354 L 575 353 L 576 353 L 577 352 L 578 352 L 579 351 L 580 351 L 581 351 L 582 350 L 583 350 L 584 350 L 585 349 L 586 349 L 587 349 L 588 348 L 589 348 L 590 348 L 591 347 L 592 347 L 593 347 L 594 346 L 595 346 L 596 346 L 597 346 L 598 346 L 599 345 L 600 345 L 601 344 L 602 343 L 603 343 L 604 343 L 604 342 L 604 341 L 604 340 L 604 339 L 605 338 L 606 337 L 607 337 L 608 337 L 608 336 L 608 335 L 608 334 L 609 333 L 609 332 L 609 331 L 609 330 L 609 329 L 609 328 L 610 327 L 610 326 L 610 325 L 610 324 L 610 323 L 611 322 L 611 321 L 611 320 L 611 319 L 612 318 L 612 317 L 612 316 L 612 315 L 613 314 L 613 313 L 613 312 L 614 311 L 614 310 L 614 309 L 614 308 L 615 307 L 615 306 L 616 305 L 616 304 L 616 303 L 617 302 L 617 301 L 618 300 L 618 299 L 619 298 L 619 297 L 619 296 L 620 295 L 620 294 L 621 293 L 621 292 L 622 291 L 622 290 L 623 289 L 623 288 L 624 287 L 625 286 L 626 285 L 626 284 L 627 283 L 627 282 L 628 281 L 629 280 L 628 279 L 628 278 L 628 277 L 628 276 L 628 275 L 629 274 L 630 273 L 631 272 L 631 271 L 631 270 L 630 269 L 629 268 L 628 267 L 628 266 L 628 265 L 628 264 L 628 263 L 628 262 L 628 261 L 628 260 L 628 259 L 628 258 L 627 257 L 627 256 L 626 255 L 626 254 L 626 253 L 626 252 L 626 251 L 625 250 L 625 249 L 625 248 L 625 247 L 624 246 L 624 245 L 624 244 L 624 243 L 624 242 L 624 241 L 624 240 L 625 239 L 625 238 L 625 237 L 625 236 L 624 235 L 624 234 L 623 233 L 623 232 L 622 231 L 622 230 L 621 229 L 621 228 L 620 227 L 620 226 L 619 225 L 618 224 L 617 224 L 617 225 L 617 226 L 617 227 L 617 228 L 618 229 L 618 230 L 618 231 L 619 232 L 619 233 L 620 234 L 620 235 L 620 236 L 621 237 L 621 238 L 621 239 L 621 240 L 622 241 L 622 242 L 622 243 L 622 244 L 622 245 L 622 246 L 623 247 L 623 248 L 623 249 L 624 250 L 624 251 L 624 252 L 624 253 L 624 254 L 624 255 L 624 256 L 624 257 L 624 258 L 624 259 L 624 260 L 625 261 L 625 262 L 625 263 L 625 264 L 625 265 L 625 266 L 625 267 L 625 268 L 625 269 L 625 270 L 625 271 L 625 272 L 625 273 L 625 274 L 625 275 L 624 276 L 624 277 L 623 278 L 623 279 L 622 280 L 622 281 L 621 282 L 621 283 L 621 284 L 620 285 L 620 286 L 619 287 L 619 288 L 618 289 L 618 290 L 617 291 L 617 292 L 617 293 L 616 294 L 616 295 L 615 296 L 615 297 L 614 298 L 614 299 L 614 300 L 613 301 L 613 302 L 613 303 L 612 304 L 612 305 L 612 306 L 611 307 L 611 308 L 611 309 L 610 310 L 610 311 L 609 312 L 609 313 L 609 314 L 609 315 L 609 316 L 608 317 L 608 318 L 608 319 L 607 320 L 608 321 L 608 322 L 608 323 L 608 324 L 608 325 L 608 326 L 607 327 L 606 327 L 606 328 L 605 329 L 604 330 L 603 331 L 603 332 L 602 333 L 601 334 L 600 335 L 599 335 L 598 336 L 597 336 L 596 336 L 595 336 L 594 336 L 593 337 L 592 337 L 591 338 L 590 338 L 589 339 L 588 339 L 587 339 L 586 339 L 585 340 L 584 341 L 583 341 L 582 342 L 581 343 L 580 343 L 579 343 L 578 343 L 577 343 L 576 343 L 575 343 L 574 344 L 573 344 L 572 345 L 571 345 L 570 346 L 569 346 L 568 346 L 567 347 L 566 347 L 565 347 L 564 348 L 563 348 L 562 349 L 561 349 L 560 349 L 559 350 L 558 350 L 557 351 L 556 351 L 555 352 L 554 352 L 553 353 L 552 353 L 551 353 L 550 354 L 549 354 L 548 355 L 547 355 L 546 356 L 545 357 L 544 357 L 543 357 L 542 358 L 541 358 L 540 358 L 539 358 L 538 358 L 537 357 L 536 357 L 535 356 L 534 356 L 533 356 L 532 356 L 531 356 L 530 355 L 529 355 L 528 354 L 527 354 L 526 354 L 525 354 L 524 354 L 523 353 L 522 353 L 521 353 L 520 353 L 519 352 L 518 352 L 517 352 L 516 351 L 515 351 L 514 351 L 513 351 L 512 351 L 511 350 L 510 350 L 509 350 L 508 350 L 507 349 L 506 349 L 505 349 L 504 349 L 503 349 L 502 349 L 501 348 L 500 348 L 499 348 L 498 348 L 497 348 L 496 348 L 495 348 L 494 348 L 493 348 L 492 348 L 491 348 L 490 348 L 489 348 L 488 348 L 487 348 L 486 348 L 485 348 L 484 348 L 483 348 L 482 348 L 481 348 L 480 348 L 479 348 L 478 348 L 477 348 L 476 347 L 475 347 L 474 347 L 473 347 L 472 347 L 471 347 L 470 347 L 469 347 L 468 347 L 467 347 L 466 347 L 465 347 L 464 346 L 464 345 L 464 344 L 464 343 L 464 342 L 465 341 L 465 340 L 466 339 L 467 338 L 468 337 L 469 336 L 470 335 L 471 335 L 472 334 L 473 334 L 474 333 L 475 333 L 476 332 L 477 332 L 478 331 L 479 331 L 480 331 L 481 330 L 482 330 L 483 330 L 484 329 L 485 329 L 486 329 L 487 329 L 488 328 L 489 328 L 490 328 L 491 327 L 492 327 L 493 327 L 494 327 L 495 327 L 496 326 L 497 326 L 498 326 L 499 326 L 500 326 L 501 326 L 502 326 L 503 325 L 504 325 L 505 325 L 506 325 L 507 325 L 508 325 L 509 325 L 510 325 L 511 325 L 512 325 L 513 325 L 514 325 L 515 325 L 516 325 L 517 325 L 518 325 L 519 325 L 520 325 L 521 325 L 522 325 L 523 325 L 524 325 L 524 324 L 525 323 L 525 322 L 525 321 L 526 320 L 527 319 L 528 319 L 529 319 L 529 318 L 529 317 L 529 316 L 529 315 L 529 314 L 529 313 L 530 312 L 530 311 L 530 310 L 530 309 L 530 308 L 531 307 L 531 306 L 531 305 L 531 304 L 532 303 L 532 302 L 532 301 L 533 300 L 533 299 L 533 298 L 534 297 L 534 296 L 535 295 L 535 294 L 535 293 L 536 292 L 537 291 L 537 290 L 538 289 L 538 288 L 539 287 L 539 286 L 540 285 L 541 284 L 541 283 L 542 282 L 542 281 L 543 280 L 544 279 L 544 278 L 545 277 L 546 276 L 547 275 L 548 274 L 549 273 L 550 272 L 551 271 L 552 270 L 552 269 L 552 268 L 552 267 L 552 266 L 552 265 L 552 264 L 552 263 L 552 262 L 552 261 L 551 260 L 551 259 L 551 258 L 550 257 L 550 256 L 549 255 L 549 254 L 549 253 L 548 252 L 548 251 L 548 250 L 548 249 L 547 248 L 547 247 L 547 246 L 547 245 L 546 244 L 546 243 L 546 242 L 546 241 L 546 240 L 545 239 L 545 238 L 545 237 L 545 236 L 545 235 L 545 234 L 545 233 L 545 232 L 545 231 L 545 230 L 545 229 L 544 228 L 544 227 L 544 226 L 544 225 L 544 224 L 544 223 L 544 222 L 544 221 L 544 220 L 544 219 L 544 218 L 544 217 L 544 216 L 544 215 L 544 214 L 544 213 L 545 212 L 545 211 L 545 210 L 545 209 L 545 208 L 545 207 L 546 206 L 546 205 L 546 204 L 545 203 L 545 202 L 545 201 L 545 200 L 545 199 L 545 198 L 546 197 L 546 196 L 545 195 L 545 194 L 544 193 L 544 192 L 543 191 L 543 190 L 542 189 L 541 188 L 541 187 L 540 186 L 540 185 L 539 184 L 539 183 L 538 182 L 538 181 L 537 180 L 536 179 L 536 178 L 535 177 L 534 176 L 533 175 L 532 175 L 531 175 L 530 175 L 530 176 L 531 177 L 531 178 L 531 179 L 532 180 L 532 181 L 533 182 L 533 183 L 534 184 L 534 185 L 534 186 L 535 187 L 535 188 L 535 189 L 536 190 L 536 191 L 536 192 L 537 193 L 537 194 L 537 195 L 537 196 L 538 197 L 538 198 L 539 199 L 539 200 L 539 201 L 539 202 L 539 203 L 539 204 L 539 205 L 539 206 L 539 207 L 539 208 L 539 209 L 539 210 L 539 211 L 539 212 L 539 213 L 539 214 L 539 215 L 539 216 L 539 217 L 539 218 L 539 219 L 539 220 L 539 221 L 539 222 L 540 223 L 540 224 L 540 225 L 540 226 L 540 227 L 540 228 L 540 229 L 540 230 L 540 231 L 541 232 L 541 233 L 541 234 L 541 235 L 541 236 L 541 237 L 541 238 L 542 239 L 542 240 L 542 241 L 542 242 L 542 243 L 542 244 L 542 245 L 543 246 L 543 247 L 543 248 L 543 249 L 543 250 L 543 251 L 544 252 L 544 253 L 544 254 L 544 255 L 544 256 L 544 257 L 545 258 L 545 259 L 545 260 L 545 261 L 545 262 L 545 263 L 544 264 L 543 265 L 543 266 L 542 267 L 542 268 L 541 269 L 540 270 L 540 271 L 539 272 L 539 273 L 538 274 L 538 275 L 537 276 L 537 277 L 536 278 L 536 279 L 536 280 L 535 281 L 535 282 L 534 283 L 534 284 L 534 285 L 533 286 L 533 287 L 532 288 L 532 289 L 531 290 L 531 291 L 531 292 L 530 293 L 530 294 L 530 295 L 529 296 L 529 297 L 528 298 L 528 299 L 528 300 L 527 301 L 527 302 L 527 303 L 526 304 L 526 305 L 525 306 L 525 307 L 524 308 L 524 309 L 524 310 L 523 311 L 523 312 L 522 313 L 521 314 L 520 314 L 519 314 L 518 314 L 517 315 L 516 315 L 515 315 L 514 315 L 513 315 L 512 315 L 511 315 L 510 316 L 509 316 L 508 316 L 507 316 L 506 316 L 505 316 L 504 317 L 503 317 L 502 317 L 501 318 L 500 318 L 499 318 L 498 318 L 497 318 L 496 319 L 495 319 L 494 319 L 493 319 L 492 320 L 491 320 L 490 320 L 489 321 L 488 321 L 487 321 L 486 322 L 485 322 L 484 322 L 483 323 L 482 323 L 481 324 L 480 324 L 479 325 L 478 325 L 477 325 L 476 326 L 475 326 L 474 327 L 473 327 L 472 328 L 471 328 L 470 329 L 469 329 L 468 329 L 467 329 L 466 329 L 465 328 L 465 327 L 465 326 L 464 325 L 463 324 L 463 323 L 463 322 L 462 321 L 462 320 L 462 319 L 462 318 L 462 317 L 463 316 L 464 315 L 464 314 L 465 313 L 466 312 L 466 311 L 467 310 L 468 309 L 469 308 L 470 308 L 470 307 L 471 306 L 472 305 L 473 305 L 474 304 L 474 303 L 475 302 L 476 302 L 477 301 L 478 300 L 479 300 L 480 299 L 481 298 L 482 297 L 483 296 L 484 295 L 485 295 L 486 294 L 487 294 L 488 293 L 489 293 L 490 292 L 491 292 L 492 291 L 493 291 L 494 291 L 495 290 L 496 290 L 496 289 L 496 288 L 495 287 L 495 286 L 495 285 L 495 284 L 495 283 L 496 282 L 497 281 L 498 281 L 499 280 L 498 279 L 498 278 L 498 277 L 498 276 L 498 275 L 498 274 L 498 273 L 498 272 L 498 271 L 498 270 L 498 269 L 498 268 L 498 267 L 498 266 L 498 265 L 498 264 L 498 263 L 498 262 L 499 261 L 499 260 L 499 259 L 500 258 L 500 257 L 500 256 L 500 255 L 501 254 L 501 253 L 501 252 L 502 251 L 502 250 L 503 249 L 503 248 L 503 247 L 504 246 L 504 245 L 505 244 L 505 243 L 505 242 L 505 241 L 505 240 L 505 239 L 505 238 L 506 237 L 505 236 L 505 235 L 504 234 L 504 233 L 503 232 L 503 231 L 502 230 L 502 229 L 501 228 L 501 227 L 501 226 L 500 225 L 500 224 L 499 223 L 499 222 L 498 221 L 498 220 L 498 219 L 497 218 L 497 217 L 497 216 L 496 215 L 496 214 L 496 213 L 495 212 L 495 211 L 495 210 L 495 209 L 494 208 L 494 207 L 494 206 L 494 205 L 494 204 L 493 203 L 493 202 L 493 201 L 493 200 L 493 199 L 493 198 L 493 197 L 492 196 L 492 195 L 492 194 L 492 193 L 492 192 L 492 191 L 492 190 L 492 189 L 492 188 L 492 187 L 492 186 L 492 185 L 492 184 L 492 183 L 492 182 L 492 181 L 492 180 L 492 179 L 491 178 L 491 177 L 491 176 L 491 175 L 491 174 L 491 173 L 490 172 L 490 171 L 489 170 L 488 169 L 487 168 L 486 167 L 485 166 L 484 166 L 483 165 L 482 164 L 481 163 L 480 162 L 479 161 L 478 161 L 477 160 L 476 159 L 475 158 L 474 158 L 473 157 L 472 156 L 471 156 L 470 155 L 469 154 L 468 154 L 467 154 L 466 153 L 465 153 L 464 153 L 463 153 L 462 152 L 461 152 L 462 153 L 463 154 L 464 155 L 465 156 L 466 156 L 467 157 L 468 158 L 469 159 L 470 160 L 471 160 L 472 161 L 473 162 L 474 163 L 475 164 L 476 165 L 477 166 L 478 167 L 479 168 L 480 169 L 481 170 L 482 171 L 483 172 L 483 173 L 484 174 L 485 175 L 485 176 L 486 177 L 486 178 L 486 179 L 487 180 L 487 181 L 487 182 L 487 183 L 487 184 L 487 185 L 487 186 L 487 187 L 487 188 L 487 189 L 487 190 L 488 191 L 488 192 L 488 193 L 488 194 L 488 195 L 488 196 L 489 197 L 489 198 L 489 199 L 489 200 L 489 201 L 490 202 L 490 203 L 490 204 L 490 205 L 490 206 L 491 207 L 491 208 L 491 209 L 491 210 L 491 211 L 491 212 L 492 213 L 492 214 L 492 215 L 493 216 L 493 217 L 493 218 L 494 219 L 494 220 L 494 221 L 494 222 L 494 223 L 495 224 L 495 225 L 495 226 L 496 227 L 496 228 L 496 229 L 497 230 L 497 231 L 497 232 L 497 233 L 498 234 L 498 235 L 498 236 L 498 237 L 498 238 L 498 239 L 498 240 L 498 241 L 498 242 L 498 243 L 498 244 L 497 245 L 497 246 L 497 247 L 497 248 L 497 249 L 496 250 L 496 251 L 495 252 L 495 253 L 495 254 L 495 255 L 495 256 L 495 257 L 494 258 L 494 259 L 494 260 L 494 261 L 494 262 L 494 263 L 494 264 L 494 265 L 493 266 L 493 267 L 493 268 L 493 269 L 493 270 L 492 271 L 492 272 L 492 273 L 492 274 L 492 275 L 491 276 L 491 277 L 491 278 L 490 279 L 489 280 L 488 280 L 487 281 L 486 281 L 485 282 L 484 283 L 483 284 L 482 285 L 481 285 L 480 286 L 479 287 L 478 288 L 478 289 L 477 290 L 476 291 L 475 292 L 474 293 L 473 294 L 472 295 L 471 296 L 470 297 L 469 298 L 468 299 L 468 300 L 467 301 L 466 302 L 465 303 L 464 304 L 463 305 L 462 306 L 462 307 L 461 308 L 460 308 L 459 308 L 458 308 L 457 308 L 456 308 L 455 307 L 455 306 L 454 305 L 453 304 L 453 303 L 452 302 L 452 301 L 451 300 L 450 299 L 450 298 L 449 297 L 448 296 L 447 295 L 446 294 L 445 294 L 444 293 L 443 294 L 442 294 L 441 294 L 440 294 L 439 294 L 438 294 L 437 293 L 436 292 L 436 291 L 436 290 L 436 289 L 436 288 L 436 287 L 437 286 L 437 285 L 437 284 L 438 283 L 438 282 L 439 281 L 440 280 L 440 279 L 441 278 L 442 277 L 443 276 L 444 275 L 444 274 L 444 273 L 444 272 L 444 271 L 443 270 L 442 269 L 442 268 L 441 267 L 441 266 L 440 265 L 440 264 L 439 263 L 439 262 L 439 261 L 438 260 L 438 259 L 438 258 L 437 257 L 437 256 L 437 255 L 436 254 L 436 253 L 436 252 L 436 251 L 436 250 L 436 249 L 436 248 L 436 247 L 436 246 L 436 245 L 436 244 L 436 243 L 436 242 L 436 241 L 436 240 L 436 239 L 436 238 L 436 237 L 436 236 L 437 235 L 437 234 L 436 233 L 436 232 L 435 231 L 434 231 L 433 232 L 432 232 L 431 233 L 430 233 L 430 234 L 429 235 L 428 236 L 428 237 L 428 238 L 428 239 L 428 240 L 428 241 L 428 242 L 427 243 L 427 244 L 428 245 L 428 246 L 428 247 L 428 248 L 428 249 L 428 250 L 429 251 L 429 252 L 429 253 L 429 254 L 429 255 L 429 256 L 430 257 L 430 258 L 431 259 L 431 260 L 431 261 L 431 262 L 432 263 L 432 264 L 432 265 L 432 266 L 433 267 L 433 268 L 434 269 L 434 270 L 434 271 L 435 272 L 435 273 L 435 274 L 435 275 L 435 276 L 434 277 L 434 278 L 434 279 L 433 280 L 433 281 L 433 282 L 433 283 L 432 284 L 432 285 L 431 286 L 430 287 L 429 288 L 428 288 L 427 289 L 426 289 L 425 289 L 424 289 L 423 289 L 422 288 L 421 288 L 420 288 L 419 288 L 418 288 L 417 289 L 416 289 L 415 289 L 414 289 L 413 289 L 412 289 L 411 288 L 410 288 L 409 288 L 408 287 L 407 286 L 406 285 L 406 284 L 405 283 L 405 282 L 404 281 L 404 280 L 403 279 L 403 278 L 402 277 L 402 276 L 402 275 L 402 274 L 402 273 L 402 272 L 402 271 L 402 270 L 403 269 L 403 268 L 404 267 L 404 266 L 405 265 L 405 264 L 405 263 L 406 262 L 406 261 L 406 260 L 407 259 L 407 258 L 408 257 L 408 256 L 408 255 L 408 254 L 409 253 L 409 252 L 409 251 L 409 250 L 409 249 L 410 248 L 410 247 L 410 246 L 410 245 L 411 244 L 411 243 L 411 242 L 411 241 L 411 240 L 410 239 L 410 238 L 409 237 L 409 236 L 408 235 L 407 234 L 406 233 L 405 232 L 404 231 L 403 230 L 402 230 L 401 230 L 400 231 L 400 232 L 400 233 L 401 234 L 401 235 L 401 236 L 401 237 L 401 238 L 401 239 L 401 240 L 401 241 L 401 242 L 401 243 L 401 244 L 401 245 L 401 246 L 401 247 L 401 248 L 401 249 L 401 250 L 401 251 L 401 252 L 400 253 L 400 254 L 400 255 L 400 256 L 399 257 L 399 258 L 398 259 L 398 260 L 398 261 L 397 262 L 397 263 L 396 264 L 396 265 L 395 266 L 395 267 L 394 268 L 394 269 L 393 270 L 392 271 L 391 272 L 391 273 L 392 274 L 392 275 L 393 276 L 394 277 L 395 278 L 396 279 L 397 280 L 398 281 L 398 282 L 399 283 L 400 284 L 400 285 L 401 286 L 401 287 L 402 288 L 402 289 L 402 290 L 402 291 L 402 292 L 402 293 L 401 294 L 400 294 L 399 294 L 398 294 L 397 294 L 396 293 L 395 293 L 394 293 L 393 293 L 392 294 L 391 294 L 390 295 L 389 295 L 388 296 L 387 297 L 386 298 L 386 299 L 385 300 L 384 301 L 384 302 L 383 303 L 382 304 L 382 305 L 381 306 L 380 307 L 379 307 L 378 307 L 377 307 L 376 307 L 375 306 L 374 305 L 373 304 L 372 303 L 372 302 L 371 301 L 370 300 L 369 299 L 368 298 L 367 297 L 367 296 L 366 295 L 365 294 L 364 293 L 363 292 L 362 291 L 362 290 L 361 289 L 360 289 L 359 288 L 358 287 L 357 286 L 356 285 L 355 284 L 354 283 L 353 282 L 352 281 L 351 280 L 350 279 L 349 278 L 348 278 L 347 277 L 346 276 L 346 275 L 345 274 L 345 273 L 345 272 L 345 271 L 345 270 L 345 269 L 345 268 L 344 267 L 344 266 L 344 265 L 344 264 L 343 263 L 343 262 L 343 261 L 342 260 L 342 259 L 342 258 L 342 257 L 342 256 L 341 255 L 341 254 L 341 253 L 341 252 L 340 251 L 340 250 L 340 249 L 340 248 L 339 247 L 339 246 L 339 245 L 338 244 L 338 243 L 337 242 L 337 241 L 337 240 L 337 239 L 337 238 L 337 237 L 338 236 L 338 235 L 338 234 L 338 233 L 339 232 L 339 231 L 339 230 L 339 229 L 339 228 L 340 227 L 340 226 L 340 225 L 340 224 L 341 223 L 341 222 L 341 221 L 341 220 L 341 219 L 342 218 L 342 217 L 342 216 L 342 215 L 342 214 L 342 213 L 343 212 L 343 211 L 343 210 L 343 209 L 344 208 L 344 207 L 344 206 L 344 205 L 344 204 L 344 203 L 344 202 L 345 201 L 345 200 L 345 199 L 345 198 L 345 197 L 345 196 L 345 195 L 346 194 L 346 193 L 346 192 L 346 191 L 346 190 L 347 189 L 347 188 L 347 187 L 347 186 L 347 185 L 347 184 L 347 183 L 347 182 L 348 181 L 348 180 L 348 179 L 348 178 L 348 177 L 348 176 L 349 175 L 350 174 L 351 173 L 351 172 L 352 171 L 353 170 L 354 169 L 354 168 L 355 167 L 356 167 L 357 166 L 358 165 L 359 164 L 360 163 L 361 162 L 362 161 L 363 160 L 364 159 L 365 159 L 366 158 L 367 157 L 368 157 L 369 156 L 370 155 L 371 154 L 372 154 L 373 153 L 374 153 L 375 153 L 376 152 L 375 152 Z" fill="black" />
</svg>